<mxfile host="app.diagrams.net" modified="2024-05-18T11:34:40.233Z" agent="Mozilla/5.0 (Macintosh; Intel Mac OS X 10_15_7) AppleWebKit/537.36 (KHTML, like Gecko) Chrome/124.0.0.0 Safari/537.36" etag="ujIvxvOPSdTMLIq1ciFi" version="24.2.7" type="github">
  <diagram id="C5RBs43oDa-KdzZeNtuy" name="Page-1">
    <mxGraphModel dx="1195" dy="655" grid="0" gridSize="10" guides="1" tooltips="1" connect="1" arrows="1" fold="1" page="1" pageScale="1" pageWidth="827" pageHeight="1169" background="#FCFCFC" math="0" shadow="0">
      <root>
        <mxCell id="WIyWlLk6GJQsqaUBKTNV-0" />
        <mxCell id="WIyWlLk6GJQsqaUBKTNV-1" parent="WIyWlLk6GJQsqaUBKTNV-0" />
        <mxCell id="_ukXYbJVCE4wGKFz86gu-5" value="" style="rounded=0;whiteSpace=wrap;html=1;fontSize=13;glass=0;strokeWidth=2;shadow=0;fillColor=none;fontColor=#000000;labelBackgroundColor=none;strokeColor=default;container=0;arcSize=12;" vertex="1" parent="WIyWlLk6GJQsqaUBKTNV-1">
          <mxGeometry x="27" y="255.52808988764045" width="759.9999999999999" height="467.59550561797755" as="geometry" />
        </mxCell>
        <mxCell id="_ukXYbJVCE4wGKFz86gu-96" value="" style="rounded=0;whiteSpace=wrap;html=1;fontSize=13;glass=0;strokeWidth=2;shadow=0;fillColor=none;fontColor=#000000;labelBackgroundColor=none;container=0;strokeColor=default;arcSize=12;" vertex="1" parent="WIyWlLk6GJQsqaUBKTNV-1">
          <mxGeometry x="46.65" y="516.832" width="729.64" height="105.16799999999999" as="geometry" />
        </mxCell>
        <mxCell id="_ukXYbJVCE4wGKFz86gu-1" value="&lt;font face=&quot;Times New Roman&quot; style=&quot;font-size: 13px;&quot;&gt;节点 1&lt;/font&gt;&lt;div style=&quot;font-size: 13px;&quot;&gt;&lt;font face=&quot;Times New Roman&quot; style=&quot;font-size: 13px;&quot;&gt;docker&amp;nbsp;&lt;/font&gt;&lt;/div&gt;&lt;div style=&quot;font-size: 13px;&quot;&gt;&lt;font face=&quot;Times New Roman&quot; style=&quot;font-size: 13px;&quot;&gt;docker compose&lt;/font&gt;&lt;/div&gt;" style="rounded=1;whiteSpace=wrap;html=1;fontSize=13;glass=0;strokeWidth=2;shadow=0;fontColor=#000000;labelBackgroundColor=none;container=0;fillColor=none;strokeColor=default;arcSize=12;" vertex="1" parent="WIyWlLk6GJQsqaUBKTNV-1">
          <mxGeometry x="49.93" y="633.736" width="144.14" height="60.263999999999996" as="geometry" />
        </mxCell>
        <mxCell id="_ukXYbJVCE4wGKFz86gu-6" value="&lt;font style=&quot;font-size: 13px;&quot; face=&quot;Times New Roman&quot;&gt;docker 集群（docker swarm 模式）&lt;/font&gt;" style="text;html=1;align=center;verticalAlign=middle;whiteSpace=wrap;rounded=0;fontColor=#000000;labelBackgroundColor=none;container=0;fontStyle=1;fontSize=13;arcSize=12;strokeColor=none;" vertex="1" parent="WIyWlLk6GJQsqaUBKTNV-1">
          <mxGeometry x="315" y="692.12" width="223.36" height="31" as="geometry" />
        </mxCell>
        <mxCell id="_ukXYbJVCE4wGKFz86gu-8" value="&lt;font face=&quot;Times New Roman&quot; style=&quot;font-size: 13px;&quot;&gt;......&lt;/font&gt;" style="text;html=1;align=center;verticalAlign=middle;whiteSpace=wrap;rounded=0;fontColor=#000000;labelBackgroundColor=none;container=0;fontSize=13;arcSize=12;strokeColor=none;" vertex="1" parent="WIyWlLk6GJQsqaUBKTNV-1">
          <mxGeometry x="393.8965517241379" y="640.6067415730337" width="52.41379310344828" height="20.629213483146067" as="geometry" />
        </mxCell>
        <mxCell id="_ukXYbJVCE4wGKFz86gu-18" value="&lt;font face=&quot;Times New Roman&quot; style=&quot;font-size: 13px;&quot;&gt;节点 2&lt;/font&gt;&lt;div style=&quot;font-size: 13px;&quot;&gt;&lt;font face=&quot;Times New Roman&quot; style=&quot;font-size: 13px;&quot;&gt;docker&amp;nbsp;&lt;/font&gt;&lt;/div&gt;&lt;div style=&quot;font-size: 13px;&quot;&gt;&lt;font face=&quot;Times New Roman&quot; style=&quot;font-size: 13px;&quot;&gt;docker compose&lt;/font&gt;&lt;/div&gt;" style="rounded=1;whiteSpace=wrap;html=1;fontSize=13;glass=0;strokeWidth=2;shadow=0;fontColor=#000000;labelBackgroundColor=none;container=0;fillColor=none;strokeColor=default;arcSize=12;" vertex="1" parent="WIyWlLk6GJQsqaUBKTNV-1">
          <mxGeometry x="220.28" y="633.736" width="150.69" height="60.263999999999996" as="geometry" />
        </mxCell>
        <mxCell id="_ukXYbJVCE4wGKFz86gu-19" value="&lt;font face=&quot;Times New Roman&quot; style=&quot;font-size: 13px;&quot;&gt;节点 n&lt;/font&gt;&lt;div style=&quot;font-size: 13px;&quot;&gt;&lt;font face=&quot;Times New Roman&quot; style=&quot;font-size: 13px;&quot;&gt;docker&amp;nbsp;&lt;/font&gt;&lt;/div&gt;&lt;div style=&quot;font-size: 13px;&quot;&gt;&lt;font face=&quot;Times New Roman&quot; style=&quot;font-size: 13px;&quot;&gt;docker compose&lt;/font&gt;&lt;/div&gt;" style="rounded=1;whiteSpace=wrap;html=1;fontSize=13;glass=0;strokeWidth=2;shadow=0;fontColor=#000000;labelBackgroundColor=none;container=0;fillColor=none;strokeColor=default;arcSize=12;" vertex="1" parent="WIyWlLk6GJQsqaUBKTNV-1">
          <mxGeometry x="623.21" y="633.736" width="144.14" height="60.263999999999996" as="geometry" />
        </mxCell>
        <mxCell id="_ukXYbJVCE4wGKFz86gu-20" value="&lt;font face=&quot;Times New Roman&quot; style=&quot;font-size: 13px;&quot;&gt;节点 n -1&lt;/font&gt;&lt;div style=&quot;font-size: 13px;&quot;&gt;&lt;font face=&quot;Times New Roman&quot; style=&quot;font-size: 13px;&quot;&gt;docker&amp;nbsp;&lt;/font&gt;&lt;/div&gt;&lt;div style=&quot;font-size: 13px;&quot;&gt;&lt;font face=&quot;Times New Roman&quot; style=&quot;font-size: 13px;&quot;&gt;docker compose&lt;/font&gt;&lt;/div&gt;" style="rounded=1;whiteSpace=wrap;html=1;fontSize=13;glass=0;strokeWidth=2;shadow=0;fontColor=#000000;labelBackgroundColor=none;container=0;fillColor=none;strokeColor=default;arcSize=12;" vertex="1" parent="WIyWlLk6GJQsqaUBKTNV-1">
          <mxGeometry x="459.41" y="633.736" width="144.14" height="60.263999999999996" as="geometry" />
        </mxCell>
        <mxCell id="_ukXYbJVCE4wGKFz86gu-66" value="" style="group;fontColor=#000000;labelBackgroundColor=none;strokeColor=default;fillColor=none;strokeWidth=2;container=0;fontSize=13;arcSize=12;" vertex="1" connectable="0" parent="WIyWlLk6GJQsqaUBKTNV-1">
          <mxGeometry x="46.6551724137931" y="283.03370786516854" width="727.2413793103449" height="220.04494382022472" as="geometry" />
        </mxCell>
        <mxCell id="_ukXYbJVCE4wGKFz86gu-114" value="" style="group;fontColor=#000000;labelBackgroundColor=none;fillColor=none;strokeColor=default;strokeWidth=2;container=0;fontSize=13;arcSize=12;" vertex="1" connectable="0" parent="WIyWlLk6GJQsqaUBKTNV-1">
          <mxGeometry x="27" y="118" width="759.9999999999999" height="110.02247191011236" as="geometry" />
        </mxCell>
        <mxCell id="_ukXYbJVCE4wGKFz86gu-65" value="&lt;font face=&quot;Times New Roman&quot; style=&quot;font-size: 13px;&quot;&gt;&lt;span style=&quot;font-size: 13px;&quot;&gt;微服务 Stack&lt;/span&gt;&lt;/font&gt;" style="text;html=1;align=center;verticalAlign=middle;whiteSpace=wrap;rounded=0;fontStyle=1;fontColor=#000000;labelBackgroundColor=none;container=0;fontSize=13;arcSize=12;strokeColor=none;" vertex="1" parent="WIyWlLk6GJQsqaUBKTNV-1">
          <mxGeometry x="35.00394366197183" y="288.00199999999995" width="123.65521126760562" height="27.504" as="geometry" />
        </mxCell>
        <mxCell id="_ukXYbJVCE4wGKFz86gu-48" value="&lt;font face=&quot;Times New Roman&quot; style=&quot;font-size: 13px;&quot;&gt;......&lt;/font&gt;" style="text;html=1;align=center;verticalAlign=middle;whiteSpace=wrap;rounded=0;fontColor=#000000;labelBackgroundColor=none;container=0;fontSize=13;arcSize=12;strokeColor=none;" vertex="1" parent="WIyWlLk6GJQsqaUBKTNV-1">
          <mxGeometry x="387.3465517241379" y="394.2089887640449" width="52.41379310344828" height="20.629213483146067" as="geometry" />
        </mxCell>
        <mxCell id="_ukXYbJVCE4wGKFz86gu-29" value="&lt;p class=&quot;MsoNormal&quot; style=&quot;margin: 0pt 0pt 0.0001pt; font-size: 13px;&quot;&gt;&lt;br style=&quot;font-size: 13px;&quot;&gt;&lt;/p&gt;" style="rounded=1;whiteSpace=wrap;html=1;fontSize=13;glass=0;strokeWidth=2;shadow=0;fontColor=#000000;labelBackgroundColor=none;container=0;strokeColor=default;fillColor=none;arcSize=12;" vertex="1" parent="WIyWlLk6GJQsqaUBKTNV-1">
          <mxGeometry x="69.58620689655172" y="324.29213483146066" width="144.13793103448276" height="165.03370786516854" as="geometry" />
        </mxCell>
        <mxCell id="_ukXYbJVCE4wGKFz86gu-30" value="&lt;p class=&quot;MsoNormal&quot; style=&quot;margin: 0pt 0pt 0.0001pt; font-size: 13px;&quot;&gt;&lt;font face=&quot;Times New Roman Regular&quot; style=&quot;font-size: 13px;&quot;&gt;&lt;span style=&quot;font-size: 13px;&quot;&gt;Container 1&lt;/span&gt;&lt;/font&gt;&lt;/p&gt;" style="rounded=1;whiteSpace=wrap;html=1;fontSize=13;glass=0;strokeWidth=2;shadow=0;fontColor=#000000;labelBackgroundColor=none;container=0;fillColor=none;strokeColor=default;arcSize=12;" vertex="1" parent="WIyWlLk6GJQsqaUBKTNV-1">
          <mxGeometry x="95.79310344827586" y="368.98876404494376" width="91.72413793103448" height="25.78651685393258" as="geometry" />
        </mxCell>
        <mxCell id="_ukXYbJVCE4wGKFz86gu-31" value="&lt;font style=&quot;font-size: 13px;&quot; face=&quot;Times New Roman&quot;&gt;&lt;span style=&quot;font-size: 13px;&quot;&gt;微服务 A&lt;/span&gt;&lt;/font&gt;" style="text;html=1;align=center;verticalAlign=middle;whiteSpace=wrap;rounded=0;fontStyle=1;fontColor=#000000;labelBackgroundColor=none;container=0;fontSize=13;arcSize=12;strokeColor=none;" vertex="1" parent="WIyWlLk6GJQsqaUBKTNV-1">
          <mxGeometry x="60.00309859154929" y="330.00199999999995" width="100.71605633802817" height="27.504" as="geometry" />
        </mxCell>
        <mxCell id="_ukXYbJVCE4wGKFz86gu-33" value="&lt;p class=&quot;MsoNormal&quot; style=&quot;margin: 0pt 0pt 0.0001pt; font-size: 13px;&quot;&gt;&lt;font face=&quot;Times New Roman Regular&quot; style=&quot;font-size: 13px;&quot;&gt;&lt;span style=&quot;font-size: 13px;&quot;&gt;Container n&lt;/span&gt;&lt;/font&gt;&lt;/p&gt;" style="rounded=1;whiteSpace=wrap;html=1;fontSize=13;glass=0;strokeWidth=2;shadow=0;fontColor=#000000;labelBackgroundColor=none;container=0;fillColor=none;strokeColor=default;arcSize=12;" vertex="1" parent="WIyWlLk6GJQsqaUBKTNV-1">
          <mxGeometry x="95.79310344827586" y="444.62921348314603" width="91.72413793103448" height="25.78651685393258" as="geometry" />
        </mxCell>
        <mxCell id="_ukXYbJVCE4wGKFz86gu-34" value="&lt;font face=&quot;Times New Roman&quot; style=&quot;font-size: 13px;&quot;&gt;......&lt;/font&gt;" style="text;html=1;align=center;verticalAlign=middle;whiteSpace=wrap;rounded=0;rotation=90;fontColor=#000000;labelBackgroundColor=none;container=0;fontSize=13;arcSize=12;strokeColor=none;" vertex="1" parent="WIyWlLk6GJQsqaUBKTNV-1">
          <mxGeometry x="121.99999999999999" y="410.2471910112359" width="52.41379310344828" height="20.629213483146067" as="geometry" />
        </mxCell>
        <mxCell id="_ukXYbJVCE4wGKFz86gu-37" value="&lt;p class=&quot;MsoNormal&quot; style=&quot;margin: 0pt 0pt 0.0001pt; font-size: 13px;&quot;&gt;&lt;br style=&quot;font-size: 13px;&quot;&gt;&lt;/p&gt;" style="rounded=1;whiteSpace=wrap;html=1;fontSize=13;glass=0;strokeWidth=2;shadow=0;fontColor=#000000;labelBackgroundColor=none;container=0;fillColor=none;strokeColor=default;arcSize=12;" vertex="1" parent="WIyWlLk6GJQsqaUBKTNV-1">
          <mxGeometry x="233.3793103448276" y="324.29213483146066" width="144.13793103448276" height="165.03370786516854" as="geometry" />
        </mxCell>
        <mxCell id="_ukXYbJVCE4wGKFz86gu-38" value="&lt;p class=&quot;MsoNormal&quot; style=&quot;margin: 0pt 0pt 0.0001pt; font-size: 13px;&quot;&gt;&lt;font face=&quot;Times New Roman Regular&quot; style=&quot;font-size: 13px;&quot;&gt;&lt;span style=&quot;font-size: 13px;&quot;&gt;Container 1&lt;/span&gt;&lt;/font&gt;&lt;/p&gt;" style="rounded=1;whiteSpace=wrap;html=1;fontSize=13;glass=0;strokeWidth=2;shadow=0;fontColor=#000000;labelBackgroundColor=none;container=0;fillColor=none;strokeColor=default;arcSize=12;" vertex="1" parent="WIyWlLk6GJQsqaUBKTNV-1">
          <mxGeometry x="259.58620689655174" y="368.98876404494376" width="91.72413793103448" height="25.78651685393258" as="geometry" />
        </mxCell>
        <mxCell id="_ukXYbJVCE4wGKFz86gu-39" value="&lt;font face=&quot;Times New Roman&quot; style=&quot;font-size: 13px;&quot;&gt;&lt;span style=&quot;font-size: 13px;&quot;&gt;微服务 B&lt;/span&gt;&lt;/font&gt;" style="text;html=1;align=center;verticalAlign=middle;whiteSpace=wrap;rounded=0;fontStyle=1;fontColor=#000000;labelBackgroundColor=none;container=0;fontSize=13;arcSize=12;strokeColor=none;" vertex="1" parent="WIyWlLk6GJQsqaUBKTNV-1">
          <mxGeometry x="239.9310344827586" y="329.99674157303366" width="58.9655172413793" height="27.50561797752809" as="geometry" />
        </mxCell>
        <mxCell id="_ukXYbJVCE4wGKFz86gu-41" value="&lt;font face=&quot;Times New Roman&quot; style=&quot;font-size: 13px;&quot;&gt;......&lt;/font&gt;" style="text;html=1;align=center;verticalAlign=middle;whiteSpace=wrap;rounded=0;rotation=90;fontColor=#000000;labelBackgroundColor=none;container=0;fontSize=13;arcSize=12;strokeColor=none;" vertex="1" parent="WIyWlLk6GJQsqaUBKTNV-1">
          <mxGeometry x="285.7931034482759" y="410.2471910112359" width="52.41379310344828" height="20.629213483146067" as="geometry" />
        </mxCell>
        <mxCell id="_ukXYbJVCE4wGKFz86gu-14" value="&lt;font face=&quot;Times New Roman&quot; style=&quot;font-size: 13px;&quot;&gt;Traefik&lt;/font&gt;&lt;div style=&quot;font-size: 13px;&quot;&gt;&lt;p class=&quot;MsoNormal&quot; style=&quot;margin: 0pt 0pt 0.0001pt; text-align: justify; font-size: 13px;&quot;&gt;&lt;span style=&quot;font-size: 13px;&quot;&gt;&lt;font face=&quot;yobFlRzFiSTVJPav9Yy1&quot; style=&quot;font-size: 13px;&quot;&gt;边缘路由器和负载均衡器&lt;/font&gt;&lt;/span&gt;&lt;/p&gt;&lt;/div&gt;" style="rounded=1;whiteSpace=wrap;html=1;fontSize=13;glass=0;strokeWidth=2;shadow=0;fontColor=#000000;labelBackgroundColor=none;container=0;fillColor=none;strokeColor=default;arcSize=12;" vertex="1" parent="WIyWlLk6GJQsqaUBKTNV-1">
          <mxGeometry x="213.72" y="544.336" width="153.28" height="65.664" as="geometry" />
        </mxCell>
        <mxCell id="_ukXYbJVCE4wGKFz86gu-15" value="&lt;p class=&quot;MsoNormal&quot; style=&quot;margin: 0pt 0pt 0.0001pt; font-family: &amp;quot;Times New Roman&amp;quot;; font-size: 13px;&quot;&gt;&lt;span style=&quot;font-family: 仿宋_GB2312; font-size: 13px;&quot;&gt;&lt;font face=&quot;Times New Roman Regular&quot; style=&quot;font-size: 13px;&quot;&gt;Portainer&lt;/font&gt;&lt;/span&gt;&lt;/p&gt;&lt;div style=&quot;font-size: 13px;&quot;&gt;&lt;p class=&quot;MsoNormal&quot; style=&quot;margin: 0pt 0pt 0.0001pt; text-align: justify; font-size: 13px;&quot;&gt;&lt;font face=&quot;yobFlRzFiSTVJPav9Yy1&quot; style=&quot;font-size: 13px;&quot;&gt;&lt;span style=&quot;font-size: 13px;&quot;&gt;容器管理工具&lt;/span&gt;&lt;/font&gt;&lt;/p&gt;&lt;/div&gt;" style="rounded=1;whiteSpace=wrap;html=1;fontSize=13;glass=0;strokeWidth=2;shadow=0;fontColor=#000000;labelBackgroundColor=none;container=0;fillColor=none;strokeColor=default;arcSize=12;" vertex="1" parent="WIyWlLk6GJQsqaUBKTNV-1">
          <mxGeometry x="56.480000000000004" y="544.336" width="137.59" height="65.664" as="geometry" />
        </mxCell>
        <mxCell id="_ukXYbJVCE4wGKFz86gu-16" value="&lt;p class=&quot;MsoNormal&quot; style=&quot;margin: 0pt 0pt 0.0001pt; font-family: &amp;quot;Times New Roman&amp;quot;; font-size: 13px;&quot;&gt;&lt;span style=&quot;font-family: 仿宋_GB2312; font-size: 13px;&quot;&gt;&lt;font face=&quot;Times New Roman Regular&quot; style=&quot;font-size: 13px;&quot;&gt;c&lt;/font&gt;&lt;/span&gt;&lt;span style=&quot;font-family: &amp;quot;Times New Roman Regular&amp;quot;; font-size: 13px;&quot;&gt;A&lt;/span&gt;&lt;span style=&quot;font-family: 仿宋_GB2312; font-size: 13px;&quot;&gt;&lt;font face=&quot;Times New Roman Regular&quot; style=&quot;font-size: 13px;&quot;&gt;dvisor + Redis + Prometheus + Grafana&amp;nbsp;&lt;/font&gt;&lt;/span&gt;&lt;/p&gt;&lt;div style=&quot;font-size: 13px;&quot;&gt;&lt;p class=&quot;MsoNormal&quot; style=&quot;margin: 0pt 0pt 0.0001pt; font-size: 13px;&quot;&gt;&lt;font face=&quot;yobFlRzFiSTVJPav9Yy1&quot; style=&quot;font-size: 13px;&quot;&gt;&lt;span style=&quot;font-size: 13px;&quot;&gt;容器与宿主机监控工具&lt;/span&gt;&lt;/font&gt;&lt;/p&gt;&lt;/div&gt;" style="rounded=1;whiteSpace=wrap;html=1;fontSize=13;glass=0;strokeWidth=2;shadow=0;align=center;fontColor=#000000;labelBackgroundColor=none;container=0;fillColor=none;strokeColor=default;arcSize=12;" vertex="1" parent="WIyWlLk6GJQsqaUBKTNV-1">
          <mxGeometry x="557.6800000000001" y="544.336" width="209.66" height="65.664" as="geometry" />
        </mxCell>
        <mxCell id="_ukXYbJVCE4wGKFz86gu-17" value="&lt;p class=&quot;MsoNormal&quot; style=&quot;margin: 0pt 0pt 0.0001pt; font-family: &amp;quot;Times New Roman&amp;quot;; font-size: 13px;&quot;&gt;&lt;span style=&quot;font-family: 仿宋_GB2312; font-size: 13px;&quot;&gt;&lt;font face=&quot;Times New Roman Regular&quot; style=&quot;font-size: 13px;&quot;&gt;Skywalking&amp;nbsp;&lt;/font&gt;&lt;/span&gt;&lt;/p&gt;&lt;div style=&quot;font-size: 13px;&quot;&gt;&lt;p class=&quot;MsoNormal&quot; style=&quot;margin: 0pt 0pt 0.0001pt; font-size: 13px;&quot;&gt;&lt;font face=&quot;yobFlRzFiSTVJPav9Yy1&quot; style=&quot;font-size: 13px;&quot;&gt;&lt;span style=&quot;font-size: 13px;&quot;&gt;分布式链路追踪工具&lt;/span&gt;&lt;/font&gt;&lt;/p&gt;&lt;/div&gt;" style="rounded=1;whiteSpace=wrap;html=1;fontSize=13;glass=0;strokeWidth=2;shadow=0;align=center;fontColor=#000000;labelBackgroundColor=none;container=0;fillColor=none;strokeColor=default;arcSize=12;" vertex="1" parent="WIyWlLk6GJQsqaUBKTNV-1">
          <mxGeometry x="387.34000000000003" y="544.336" width="163.79" height="65.664" as="geometry" />
        </mxCell>
        <mxCell id="_ukXYbJVCE4wGKFz86gu-98" value="&lt;font face=&quot;Times New Roman&quot; style=&quot;font-size: 13px;&quot;&gt;&lt;span style=&quot;font-size: 13px;&quot;&gt;工具服务&lt;/span&gt;&lt;/font&gt;" style="text;html=1;align=center;verticalAlign=middle;whiteSpace=wrap;rounded=0;fontStyle=1;fontColor=#000000;labelBackgroundColor=none;container=0;fontSize=13;arcSize=12;strokeColor=none;" vertex="1" parent="WIyWlLk6GJQsqaUBKTNV-1">
          <mxGeometry x="46.6551724137931" y="516.8314606741573" width="81.89655172413792" height="27.50561797752809" as="geometry" />
        </mxCell>
        <mxCell id="_ukXYbJVCE4wGKFz86gu-0" value="&lt;font style=&quot;font-size: 13px;&quot; face=&quot;Times New Roman&quot;&gt;Jenkins&amp;nbsp;&lt;/font&gt;&lt;div style=&quot;font-size: 13px;&quot;&gt;&lt;font face=&quot;RUwg2uM1JFRjtRuIZe-r&quot; style=&quot;font-size: 13px;&quot;&gt;持续集成/持续部署工具&lt;/font&gt;&lt;/div&gt;" style="rounded=1;whiteSpace=wrap;html=1;fontSize=13;glass=0;strokeWidth=2;shadow=0;fontColor=#000000;labelBackgroundColor=none;fillColor=none;strokeColor=default;container=0;arcSize=12;" vertex="1" parent="WIyWlLk6GJQsqaUBKTNV-1">
          <mxGeometry x="40.10344827586207" y="138.62921348314606" width="347.24137931034477" height="68.76404494382022" as="geometry" />
        </mxCell>
        <mxCell id="_ukXYbJVCE4wGKFz86gu-12" value="&lt;font style=&quot;font-size: 13px;&quot; face=&quot;Times New Roman&quot;&gt;Harbor&lt;/font&gt;&lt;div style=&quot;font-size: 13px;&quot;&gt;&lt;font style=&quot;font-size: 13px;&quot; face=&quot;kddPSrj0EZQL9UMXb2O5&quot;&gt;私有镜像仓库&amp;nbsp;&lt;/font&gt;&lt;/div&gt;" style="rounded=1;whiteSpace=wrap;html=1;fontSize=13;glass=0;strokeWidth=2;shadow=0;fontColor=#000000;labelBackgroundColor=none;fillColor=none;strokeColor=default;container=0;arcSize=12;" vertex="1" parent="WIyWlLk6GJQsqaUBKTNV-1">
          <mxGeometry x="433.2068965517242" y="138.62921348314606" width="334.1379310344828" height="68.76404494382022" as="geometry" />
        </mxCell>
        <mxCell id="_ukXYbJVCE4wGKFz86gu-118" value="&lt;p class=&quot;MsoNormal&quot; style=&quot;margin: 0pt 0pt 0.0001pt; font-size: 13px;&quot;&gt;&lt;font face=&quot;Times New Roman Regular&quot; style=&quot;font-size: 13px;&quot;&gt;&lt;span style=&quot;font-size: 13px;&quot;&gt;Container n&lt;/span&gt;&lt;/font&gt;&lt;/p&gt;" style="rounded=1;whiteSpace=wrap;html=1;fontSize=13;glass=0;strokeWidth=2;shadow=0;fontColor=#000000;labelBackgroundColor=none;container=0;fillColor=none;strokeColor=default;arcSize=12;" vertex="1" parent="WIyWlLk6GJQsqaUBKTNV-1">
          <mxGeometry x="259.58620689655174" y="441.19101123595505" width="91.72413793103448" height="25.78651685393258" as="geometry" />
        </mxCell>
        <mxCell id="_ukXYbJVCE4wGKFz86gu-132" value="" style="shape=flexArrow;endArrow=classic;startArrow=classic;html=1;rounded=0;strokeColor=default;strokeWidth=2;entryX=0.512;entryY=1.005;entryDx=0;entryDy=0;exitX=0.25;exitY=0;exitDx=0;exitDy=0;width=5.9459459459459465;endSize=2.427027027027027;startWidth=8.204294520083995;startSize=2.427027027027027;entryPerimeter=0;endWidth=8.204294520083995;arcSize=12;fontSize=13;labelBackgroundColor=none;fontColor=#000000;" edge="1" parent="WIyWlLk6GJQsqaUBKTNV-1" source="_ukXYbJVCE4wGKFz86gu-5" target="_ukXYbJVCE4wGKFz86gu-0">
          <mxGeometry width="100" height="100" relative="1" as="geometry">
            <mxPoint x="5.591549295774648" y="358" as="sourcePoint" />
            <mxPoint x="112.63380281690141" y="238" as="targetPoint" />
          </mxGeometry>
        </mxCell>
        <mxCell id="_ukXYbJVCE4wGKFz86gu-133" value="" style="shape=flexArrow;endArrow=classic;startArrow=classic;html=1;rounded=0;strokeColor=default;strokeWidth=2;entryX=0.512;entryY=1.005;entryDx=0;entryDy=0;exitX=0.25;exitY=0;exitDx=0;exitDy=0;width=5.9459459459459465;endSize=2.427027027027027;startWidth=8.204294520083995;startSize=2.427027027027027;entryPerimeter=0;endWidth=8.204294520083995;arcSize=12;fontSize=13;labelBackgroundColor=none;fontColor=#000000;" edge="1" parent="WIyWlLk6GJQsqaUBKTNV-1">
          <mxGeometry width="100" height="100" relative="1" as="geometry">
            <mxPoint x="603.5509859154929" y="255.388" as="sourcePoint" />
            <mxPoint x="603.5509859154929" y="207.38799999999998" as="targetPoint" />
          </mxGeometry>
        </mxCell>
        <mxCell id="_ukXYbJVCE4wGKFz86gu-134" value="" style="group" vertex="1" connectable="0" parent="WIyWlLk6GJQsqaUBKTNV-1">
          <mxGeometry x="446.3137931034483" y="322.00213483146064" width="144.13793103448273" height="165.03370786516854" as="geometry" />
        </mxCell>
        <mxCell id="_ukXYbJVCE4wGKFz86gu-120" value="&lt;p class=&quot;MsoNormal&quot; style=&quot;margin: 0pt 0pt 0.0001pt; font-size: 13px;&quot;&gt;&lt;br style=&quot;font-size: 13px;&quot;&gt;&lt;/p&gt;" style="rounded=1;whiteSpace=wrap;html=1;fontSize=13;glass=0;strokeWidth=2;shadow=0;fontColor=#000000;labelBackgroundColor=none;container=0;fillColor=none;strokeColor=default;arcSize=12;" vertex="1" parent="_ukXYbJVCE4wGKFz86gu-134">
          <mxGeometry width="144.13793103448276" height="165.03370786516854" as="geometry" />
        </mxCell>
        <mxCell id="_ukXYbJVCE4wGKFz86gu-121" value="&lt;p class=&quot;MsoNormal&quot; style=&quot;margin: 0pt 0pt 0.0001pt; font-size: 13px;&quot;&gt;&lt;font face=&quot;Times New Roman Regular&quot; style=&quot;font-size: 13px;&quot;&gt;&lt;span style=&quot;font-size: 13px;&quot;&gt;Container 1&lt;/span&gt;&lt;/font&gt;&lt;/p&gt;" style="rounded=1;whiteSpace=wrap;html=1;fontSize=13;glass=0;strokeWidth=2;shadow=0;fontColor=#000000;labelBackgroundColor=none;container=0;fillColor=none;strokeColor=default;arcSize=12;" vertex="1" parent="_ukXYbJVCE4wGKFz86gu-134">
          <mxGeometry x="26.20689655172407" y="44.69662921348311" width="91.72413793103448" height="25.78651685393258" as="geometry" />
        </mxCell>
        <mxCell id="_ukXYbJVCE4wGKFz86gu-122" value="&lt;font face=&quot;Times New Roman&quot; style=&quot;font-size: 13px;&quot;&gt;&lt;span style=&quot;font-size: 13px;&quot;&gt;微服务 Y&lt;/span&gt;&lt;/font&gt;" style="text;html=1;align=center;verticalAlign=middle;whiteSpace=wrap;rounded=0;fontStyle=1;fontColor=#000000;labelBackgroundColor=none;container=0;fontSize=13;arcSize=12;strokeColor=none;" vertex="1" parent="_ukXYbJVCE4wGKFz86gu-134">
          <mxGeometry x="6.551724137930989" y="2.704606741573002" width="58.9655172413793" height="27.50561797752809" as="geometry" />
        </mxCell>
        <mxCell id="_ukXYbJVCE4wGKFz86gu-123" value="&lt;font face=&quot;Times New Roman&quot; style=&quot;font-size: 13px;&quot;&gt;......&lt;/font&gt;" style="text;html=1;align=center;verticalAlign=middle;whiteSpace=wrap;rounded=0;rotation=90;fontColor=#000000;labelBackgroundColor=none;container=0;fontSize=13;arcSize=12;strokeColor=none;" vertex="1" parent="_ukXYbJVCE4wGKFz86gu-134">
          <mxGeometry x="52.4137931034482" y="85.95505617977523" width="52.41379310344828" height="20.629213483146067" as="geometry" />
        </mxCell>
        <mxCell id="_ukXYbJVCE4wGKFz86gu-124" value="&lt;p class=&quot;MsoNormal&quot; style=&quot;margin: 0pt 0pt 0.0001pt; font-size: 13px;&quot;&gt;&lt;font face=&quot;Times New Roman Regular&quot; style=&quot;font-size: 13px;&quot;&gt;&lt;span style=&quot;font-size: 13px;&quot;&gt;Container n&lt;/span&gt;&lt;/font&gt;&lt;/p&gt;" style="rounded=1;whiteSpace=wrap;html=1;fontSize=13;glass=0;strokeWidth=2;shadow=0;fontColor=#000000;labelBackgroundColor=none;container=0;fillColor=none;strokeColor=default;arcSize=12;" vertex="1" parent="_ukXYbJVCE4wGKFz86gu-134">
          <mxGeometry x="26.20689655172407" y="116.89887640449439" width="91.72413793103448" height="25.78651685393258" as="geometry" />
        </mxCell>
        <mxCell id="_ukXYbJVCE4wGKFz86gu-135" value="" style="group" vertex="1" connectable="0" parent="WIyWlLk6GJQsqaUBKTNV-1">
          <mxGeometry x="614.9951724137931" y="322.00213483146064" width="144.1379310344828" height="165.03370786516854" as="geometry" />
        </mxCell>
        <mxCell id="_ukXYbJVCE4wGKFz86gu-125" value="&lt;p class=&quot;MsoNormal&quot; style=&quot;margin: 0pt 0pt 0.0001pt; font-size: 13px;&quot;&gt;&lt;br style=&quot;font-size: 13px;&quot;&gt;&lt;/p&gt;" style="rounded=1;whiteSpace=wrap;html=1;fontSize=13;glass=0;strokeWidth=2;shadow=0;fontColor=#000000;labelBackgroundColor=none;container=0;fillColor=none;strokeColor=default;arcSize=12;" vertex="1" parent="_ukXYbJVCE4wGKFz86gu-135">
          <mxGeometry width="144.13793103448276" height="165.03370786516854" as="geometry" />
        </mxCell>
        <mxCell id="_ukXYbJVCE4wGKFz86gu-126" value="&lt;p class=&quot;MsoNormal&quot; style=&quot;margin: 0pt 0pt 0.0001pt; font-size: 13px;&quot;&gt;&lt;font face=&quot;Times New Roman Regular&quot; style=&quot;font-size: 13px;&quot;&gt;&lt;span style=&quot;font-size: 13px;&quot;&gt;Container 1&lt;/span&gt;&lt;/font&gt;&lt;/p&gt;" style="rounded=1;whiteSpace=wrap;html=1;fontSize=13;glass=0;strokeWidth=2;shadow=0;fontColor=#000000;labelBackgroundColor=none;container=0;fillColor=none;strokeColor=default;arcSize=12;" vertex="1" parent="_ukXYbJVCE4wGKFz86gu-135">
          <mxGeometry x="26.20689655172407" y="44.69662921348311" width="91.72413793103448" height="25.78651685393258" as="geometry" />
        </mxCell>
        <mxCell id="_ukXYbJVCE4wGKFz86gu-127" value="&lt;font face=&quot;Times New Roman&quot; style=&quot;font-size: 13px;&quot;&gt;&lt;span style=&quot;font-size: 13px;&quot;&gt;微服务 Z&lt;/span&gt;&lt;/font&gt;" style="text;html=1;align=center;verticalAlign=middle;whiteSpace=wrap;rounded=0;fontStyle=1;fontColor=#000000;labelBackgroundColor=none;container=0;fontSize=13;arcSize=12;strokeColor=none;" vertex="1" parent="_ukXYbJVCE4wGKFz86gu-135">
          <mxGeometry x="6.551724137931046" y="0.004606741573013551" width="58.9655172413793" height="27.50561797752809" as="geometry" />
        </mxCell>
        <mxCell id="_ukXYbJVCE4wGKFz86gu-128" value="&lt;font face=&quot;Times New Roman&quot; style=&quot;font-size: 13px;&quot;&gt;......&lt;/font&gt;" style="text;html=1;align=center;verticalAlign=middle;whiteSpace=wrap;rounded=0;rotation=90;fontColor=#000000;labelBackgroundColor=none;container=0;fontSize=13;arcSize=12;strokeColor=none;" vertex="1" parent="_ukXYbJVCE4wGKFz86gu-135">
          <mxGeometry x="52.89482758620693" y="85.95786516853934" width="51.45" height="20.63" as="geometry" />
        </mxCell>
        <mxCell id="_ukXYbJVCE4wGKFz86gu-129" value="&lt;p class=&quot;MsoNormal&quot; style=&quot;margin: 0pt 0pt 0.0001pt; font-size: 13px;&quot;&gt;&lt;font face=&quot;Times New Roman Regular&quot; style=&quot;font-size: 13px;&quot;&gt;&lt;span style=&quot;font-size: 13px;&quot;&gt;Container n&lt;/span&gt;&lt;/font&gt;&lt;/p&gt;" style="rounded=1;whiteSpace=wrap;html=1;fontSize=13;glass=0;strokeWidth=2;shadow=0;fontColor=#000000;labelBackgroundColor=none;container=0;fillColor=none;strokeColor=default;arcSize=12;" vertex="1" parent="_ukXYbJVCE4wGKFz86gu-135">
          <mxGeometry x="26.20689655172407" y="116.89887640449439" width="91.72413793103448" height="25.78651685393258" as="geometry" />
        </mxCell>
      </root>
    </mxGraphModel>
  </diagram>
</mxfile>
